<svg width="131" height="58" viewBox="0 0 131 58" fill="none" xmlns="http://www.w3.org/2000/svg">
<path d="M9.61224 2.21221C9.16533 5.70329 7.33373 8.89306 5.6047 11.8844C3.69984 15.1844 1.69973 18.5138 0.666708 22.218C-0.227112 25.4371 -0.3077 28.9135 0.95244 32.0518C2.18327 35.1166 4.42515 37.6816 7.62678 38.7032C11.5244 39.9453 15.5466 38.4019 19.1219 36.8952C22.9463 35.2783 26.7633 33.6614 30.5877 32.0445C38.2877 28.7886 45.9878 25.5327 53.6878 22.2768C56.4206 21.1229 59.5123 19.7338 62.2524 19.6309C63.5345 19.5794 64.3624 19.6823 65.3221 20.2777C66.0621 20.7407 66.6775 21.8284 66.7361 22.9088C66.9046 26.1647 64.8386 29.2148 63.2854 31.9783C61.5417 35.0798 59.9446 38.2843 59.6515 41.8856C59.3951 44.9945 60.2376 48.3386 62.4282 50.6243C64.9851 53.2996 68.7069 53.7186 72.1796 53.138C75.8208 52.5279 79.2862 50.8595 82.7077 49.5219C86.5394 48.0226 90.3637 46.5232 94.1954 45.0239C97.8 43.6128 101.39 42.0767 105.104 40.9669C108.218 40.0335 111.632 39.2985 114.871 39.9747C120.893 41.2242 123.67 46.6923 125.413 52.0943C125.875 53.5275 126.285 54.9827 126.673 56.4379C127.406 59.1794 131.648 58.0108 130.915 55.262C129.377 49.5072 127.465 43.0542 122.739 39.0634C119.992 36.7409 116.665 35.5061 113.083 35.3371C109.412 35.1607 105.713 36.0721 102.262 37.2407C98.5693 38.4828 94.9647 40.0041 91.3382 41.4226C87.5064 42.9219 83.6821 44.4213 79.8504 45.9206C76.7366 47.1406 73.3738 48.7943 70.033 48.9707C68.6044 49.0442 67.3369 48.8678 66.1427 48.0373C65.3441 47.4787 64.6847 46.4277 64.377 45.4282C63.5711 42.8117 64.1352 40.0776 65.3807 37.4318C66.9486 34.095 69.1612 31.067 70.3773 27.5612C71.5349 24.2244 71.5276 20.2703 68.9487 17.5877C66.6922 15.2358 63.3513 14.9565 60.3109 15.4122C57.036 15.9046 54.0248 17.3745 50.999 18.6534C47.1747 20.2703 43.3576 21.8872 39.5332 23.5042C31.9211 26.7233 24.331 30.0307 16.6822 33.1616C15.0264 33.8378 13.2461 34.558 11.4512 34.6977C9.85401 34.8226 8.54258 34.5286 7.36303 33.6834C7.0773 33.4776 6.57178 32.9926 6.21279 32.5516C6.35932 32.728 6.11022 32.4193 6.11022 32.4119C6.01498 32.2796 5.91973 32.14 5.83181 32.0004C5.61202 31.6476 5.40688 31.2875 5.23105 30.9126C4.77681 29.9645 4.43247 28.4284 4.38851 27.3774C4.24931 23.9672 5.71459 20.7113 7.30442 17.7861C9.10671 14.4567 11.1728 11.2891 12.5941 7.76123C13.3194 5.96056 13.7663 4.1305 14.0081 2.2049C14.1619 1.0216 12.8871 0 11.8102 0C10.4987 0.00734965 9.76609 1.02156 9.61224 2.21221Z" fill="#E79704"/>
</svg>
